<svg xmlns="http://www.w3.org/2000/svg" width="230" height="230">
    <path fill="#fff" stroke="#000" stroke-width="12"
          d="M114.36 223.771c-58.376 0-105.235-46.399-105.235-103.68 0-57.283 47.284-103.681 105.66-103.681 58.375 0 105.66 46.398 105.66 103.68 0 57.282-47.71 103.681-106.086 103.681z"
          opacity="undefined"/>
    <path fill="#fff" stroke="#000" stroke-width="12"
          d="M61.687 143.461c-22.863 31.637 2.858 40.507 21.593 39.916 18.735-.592 30.801-13.601 31.754-25.132.952-11.531-7.304 27.793 32.39 25.132 39.692-2.661 19.37-36.959 15.559-41.69M54.889 116.687c7.639-37.152 26.389-52.43 35.07-40.625 8.68 11.806 3.124 31.25.694 43.403M132.107 114.48c-2.453-33.802 11.9-38.088 23.997-36.707 12.096 1.381 12.82 24.062 11.833 35.317M35.05 71.969c-9.232-53.766-9.278-72.962 8.425-57.86C61.18 29.213 67.328 36.08 73.925 42.023M148.66 50.686c43.273-33.217 60.237-42.2 55.121-19.5-5.115 22.7-8.328 31.342-10.513 39.947"
          opacity="NaN"/>
</svg>